<svg xmlns="http://www.w3.org/2000/svg" width="253.3" height="86.123" viewBox="0 0 253.3 86.123">
  <g id="Group_54" data-name="Group 54" transform="translate(697.278 680.963)">
    <g id="Слой_x0020_1" transform="translate(-697.278 -680.963)">
      <g id="_2538115660064" transform="translate(0 0)">
        <path id="Path_28" data-name="Path 28" d="M13141.571,9906.348a9.97,9.97,0,0,1,2.606,6.984v8.162a2.688,2.688,0,0,1-.746,1.842,2.5,2.5,0,0,1-1.812.787,2.68,2.68,0,0,1-1.857-.783,2.6,2.6,0,0,1-.807-1.846v-8.6a4.792,4.792,0,0,0-1.157-3.3,3.912,3.912,0,0,0-2.931-1.26,3.981,3.981,0,0,0-2.969,1.256,4.765,4.765,0,0,0-1.156,3.3v8.6a2.684,2.684,0,0,1-.769,1.846,2.565,2.565,0,0,1-1.823.783,2.619,2.619,0,0,1-1.84-.783h0a2.63,2.63,0,0,1-.787-1.846v-8.6a4.8,4.8,0,0,0-1.145-3.311,3.924,3.924,0,0,0-2.943-1.248,3.979,3.979,0,0,0-2.969,1.256,4.76,4.76,0,0,0-1.154,3.3v8.6a2.65,2.65,0,0,1-.789,1.846h0a2.557,2.557,0,0,1-3.684,0h0a2.632,2.632,0,0,1-.789-1.846v-8.162a9.891,9.891,0,0,1,2.651-6.975,9.256,9.256,0,0,1,6.769-2.8,8.619,8.619,0,0,1,3.9.91,9.984,9.984,0,0,1,2.772,2.092,9.745,9.745,0,0,1,2.752-2.092,8.723,8.723,0,0,1,3.973-.91A9.1,9.1,0,0,1,13141.571,9906.348Z" transform="translate(-13016.493 -9871.403)" fill="#fff" fill-rule="evenodd"/>
        <path id="Path_29" data-name="Path 29" d="M15046.748,9915.173a2.8,2.8,0,0,1-2.065.946H15033a4.681,4.681,0,0,0,1.44,2.03,5.6,5.6,0,0,0,3.561,1.2,6.981,6.981,0,0,0,2.343-.413,11.233,11.233,0,0,0,1.738-.809l.034-.021a3.459,3.459,0,0,1,.536-.209,2.785,2.785,0,0,1,.73-.1,2.357,2.357,0,0,1,1.69.682v0a2.377,2.377,0,0,1,.687,1.69,2.526,2.526,0,0,1-.315,1.218,2.458,2.458,0,0,1-.886.921,11.982,11.982,0,0,1-2.3,1.069,13,13,0,0,1-4.252.723,10.449,10.449,0,0,1-7.428-2.961,10.314,10.314,0,0,1,7.247-17.61,9.748,9.748,0,0,1,6.833,2.76,9.49,9.49,0,0,1,2.945,6.73A3.219,3.219,0,0,1,15046.748,9915.173Zm-5.723-5.7a4.83,4.83,0,0,0-3.2-1.267,5.285,5.285,0,0,0-3.434,1.271h0a4.761,4.761,0,0,0-1.414,2.066h9.5A5.268,5.268,0,0,0,15041.025,9909.478Z" transform="translate(-14897.712 -9871.382)" fill="#fff" fill-rule="evenodd"/>
        <path id="Path_30" data-name="Path 30" d="M16162.272,9906.935c-.08.219-.192.479-.287.689l-9.82,22.291a2.884,2.884,0,0,1-1.048,1.137,2.655,2.655,0,0,1-1.492.441,2.571,2.571,0,0,1-1.795-.878,2.623,2.623,0,0,1-.654-1.879,2.7,2.7,0,0,1,.161-.729c.075-.213.152-.395.219-.544l2.4-5.473-7.23-14.189,0,0c-.1-.2-.228-.449-.323-.668a2.5,2.5,0,0,1-.207-.644v0a2.638,2.638,0,0,1,.566-1.966,2.613,2.613,0,0,1,3.306-.65,2.75,2.75,0,0,1,1.119,1.131l5.485,10.9,4.7-10.82a2.723,2.723,0,0,1,1.053-1.194,2.628,2.628,0,0,1,4.011,2.4A2.438,2.438,0,0,1,16162.272,9906.935Z" transform="translate(-15992.35 -9871.332)" fill="#fff" fill-rule="evenodd"/>
        <path id="Path_31" data-name="Path 31" d="M17355.641,9508.24a2.652,2.652,0,0,1,.781,1.854v15.31a2.661,2.661,0,0,1-.781,1.857,2.609,2.609,0,0,1-1.848.772,2.549,2.549,0,0,1-1.822-.784,2.663,2.663,0,0,1-.77-1.846v-15.31a2.667,2.667,0,0,1,.77-1.848,2.544,2.544,0,0,1,1.822-.783,2.6,2.6,0,0,1,1.848.771Zm-4.088-2.594a3.146,3.146,0,0,1,0-4.47h0a3.16,3.16,0,0,1,4.482-.011l0,0a3.165,3.165,0,0,1,0,4.483l0,0a3.155,3.155,0,0,1-4.479-.01Z" transform="translate(-17179.148 -9475.313)" fill="#fff" fill-rule="evenodd"/>
        <path id="Path_32" data-name="Path 32" d="M17882.781,9909.389a3.81,3.81,0,0,0-.984,2.651v9.462a2.643,2.643,0,0,1-.785,1.847h0a2.562,2.562,0,0,1-3.684,0,2.646,2.646,0,0,1-.785-1.848v-8.955a9.037,9.037,0,0,1,2.492-6.473,8.748,8.748,0,0,1,6.383-2.512,8.434,8.434,0,0,1,2.754.473,7.719,7.719,0,0,1,2.414,1.328,2.772,2.772,0,0,1,.7.885h0a2.424,2.424,0,0,1,.264,1.1,2.522,2.522,0,0,1-.709,1.722,2.383,2.383,0,0,1-1.7.762,2.746,2.746,0,0,1-.865-.13,2.883,2.883,0,0,1-.766-.394l-.029-.021a3.9,3.9,0,0,0-2.238-.9A3.322,3.322,0,0,0,17882.781,9909.389Z" transform="translate(-17695.648 -9871.413)" fill="#fff" fill-rule="evenodd"/>
        <path id="Path_33" data-name="Path 33" d="M18771.229,9508.238v0a2.664,2.664,0,0,1,.785,1.859v15.31a2.664,2.664,0,0,1-.785,1.857,2.611,2.611,0,0,1-1.846.772,2.557,2.557,0,0,1-1.824-.784,2.671,2.671,0,0,1-.77-1.846v-15.31a2.676,2.676,0,0,1,.77-1.848,2.552,2.552,0,0,1,1.824-.783A2.6,2.6,0,0,1,18771.229,9508.238Zm-4.084-2.592a3.171,3.171,0,0,1,2.238-5.406,3.176,3.176,0,0,1,2.244.927v0a3.177,3.177,0,0,1,0,4.483v0a3.159,3.159,0,0,1-4.482-.01h0Z" transform="translate(-18569.385 -9475.313)" fill="#fff" fill-rule="evenodd"/>
        <path id="Path_34" data-name="Path 34" d="M19321.668,9906.346a9.966,9.966,0,0,1,2.605,6.982v8.162a2.686,2.686,0,0,1-.75,1.844,2.487,2.487,0,0,1-1.807.786,2.683,2.683,0,0,1-1.857-.782,2.608,2.608,0,0,1-.807-1.848v-8.6a4.811,4.811,0,0,0-1.156-3.3,4.09,4.09,0,0,0-5.9,0,4.771,4.771,0,0,0-1.156,3.3v8.6a2.684,2.684,0,0,1-.77,1.846,2.558,2.558,0,0,1-1.826.784,2.69,2.69,0,0,1-2.629-2.63v-8.6a4.8,4.8,0,0,0-1.141-3.311,3.931,3.931,0,0,0-2.945-1.246,3.972,3.972,0,0,0-2.969,1.256,4.763,4.763,0,0,0-1.158,3.3v8.6a2.606,2.606,0,0,1-4.467,1.849l0,0a2.649,2.649,0,0,1-.785-1.844v-8.162a9.9,9.9,0,0,1,2.648-6.973,9.272,9.272,0,0,1,6.77-2.807,8.643,8.643,0,0,1,3.9.91,10.091,10.091,0,0,1,2.775,2.093,9.755,9.755,0,0,1,2.746-2.093,8.779,8.779,0,0,1,3.977-.91A9.094,9.094,0,0,1,19321.668,9906.346Z" transform="translate(-19085.9 -9871.399)" fill="#fff" fill-rule="evenodd"/>
        <g id="Group_8" data-name="Group 8" transform="translate(0.469)">
          <path id="Path_35" data-name="Path 35" d="M7802.952,8130.768a12.56,12.56,0,0,0,3.486,9.413s23.294,24.061,24.545,25c2.982,2.234,4.6,4.252,9.285,5.009,2.872.463,6.671-.4,10.317-3.642,1.757-1.562,35.007-35.88,36.637-38.2a12.444,12.444,0,0,0-12.908-19.513,13.346,13.346,0,0,0-7.015,4.285s-14.07,14.853-17.811,18.02a14.559,14.559,0,0,1-8.265,3.58,12.425,12.425,0,0,1-7.707-3.044s-8.4-8.346-11.013-10.445a14.363,14.363,0,0,0-4.674-2.149,13.183,13.183,0,0,0-9.287,1.759A11.964,11.964,0,0,0,7802.952,8130.768Z" transform="translate(-7802.943 -8108.527)" fill="#fff" fill-rule="evenodd"/>
        </g>
        <g id="Group_9" data-name="Group 9" transform="translate(52.333 43.561)">
          <path id="Path_36" data-name="Path 36" d="M10723.633,10540.7s.375,26.26-.059,30.682a12.439,12.439,0,0,1-3.244,7.441c-6.391,6.441-12.943,4.442-15.8,2.794a11.716,11.716,0,0,1-5.8-9.848,13.067,13.067,0,0,1,4.336-9.951Z" transform="translate(-10698.724 -10540.701)" fill="#fff"/>
        </g>
        <g id="Group_10" data-name="Group 10" transform="translate(0 43.556)">
          <path id="Path_37" data-name="Path 37" d="M7776.927,10540.4s-.383,26.262.06,30.682a12.334,12.334,0,0,0,3.3,7.442c6.5,6.44,13.16,4.442,16.067,2.793a11.7,11.7,0,0,0,5.9-9.85,12.994,12.994,0,0,0-4.409-9.951Z" transform="translate(-7776.773 -10540.4)" fill="#fff" fill-rule="evenodd"/>
        </g>
        <g id="Group_52" data-name="Group 52" transform="translate(95.078 62.955)">
          <g id="Group_11" data-name="Group 11" transform="translate(0.799 0.1)">
            <path id="Path_38" data-name="Path 38" d="M13137.139,11629.842a.649.649,0,0,0-.656-.67h-.432a.7.7,0,0,0-.578.319l-1.936,2.405-1.936-2.405a.7.7,0,0,0-.58-.319h-.429a.649.649,0,0,0-.658.67v5.747a.648.648,0,0,0,.658.668.633.633,0,0,0,.649-.668v-3.742l-.062-1.028.58.818,1.138,1.429a.823.823,0,0,0,.639.338.839.839,0,0,0,.638-.338l1.139-1.438.569-.809-.049,1.028v3.742a.638.638,0,0,0,.648.668.647.647,0,0,0,.656-.668Z" transform="translate(-13129.935 -11629.172)" fill="#fff"/>
          </g>
          <g id="Group_12" data-name="Group 12" transform="translate(9.401 0)">
            <path id="Path_39" data-name="Path 39" d="M13610.2,11627.164a3.593,3.593,0,1,0,3.592-3.6A3.588,3.588,0,0,0,13610.2,11627.164Zm1.3,0a2.3,2.3,0,1,1,2.294,2.384A2.334,2.334,0,0,1,13611.5,11627.164Z" transform="translate(-13610.202 -11623.561)" fill="#fff"/>
          </g>
          <g id="Group_13" data-name="Group 13" transform="translate(17.983 0.101)">
            <path id="Path_40" data-name="Path 40" d="M14090.66,11632.9h1.814a1.032,1.032,0,0,1,1.119,1.047.994.994,0,0,1-1.119,1.019h-1.814Zm0-2.525h3.023a.6.6,0,1,0,0-1.2h-3.662a.637.637,0,0,0-.639.642v5.708a.628.628,0,0,0,.629.639h2.463a2.225,2.225,0,1,0,0-4.441h-1.814Z" transform="translate(-14089.383 -11629.18)" fill="#fff"/>
          </g>
          <g id="Group_14" data-name="Group 14" transform="translate(24.741 0)">
            <path id="Path_41" data-name="Path 41" d="M14471.17,11626.254l.47-.837-.051.938v3.761a.66.66,0,0,0,1.319,0v-5.786a.669.669,0,0,0-.66-.649h-.4a.771.771,0,0,0-.588.309l-2.864,4.122-.471.839.051-.939v-3.793a.66.66,0,0,0-1.318,0v5.8a.664.664,0,0,0,.659.647h.4a.742.742,0,0,0,.588-.307Z" transform="translate(-14466.658 -11623.58)" fill="#fff"/>
          </g>
          <g id="Group_15" data-name="Group 15" transform="translate(31.784 0.101)">
            <path id="Path_42" data-name="Path 42" d="M14861.439,11629.762c0,3.224-.171,4.529-1.117,5.258-.222.169-.422.34-.422.627a.614.614,0,0,0,.631.621c.318,0,.537-.18.908-.579,1.007-1.106,1.207-2.7,1.255-5.33h2.518v5.27a.646.646,0,0,0,.648.64.659.659,0,0,0,.64-.64v-5.807a.639.639,0,0,0-.64-.642h-3.785A.606.606,0,0,0,14861.439,11629.762Z" transform="translate(-14859.9 -11629.18)" fill="#fff"/>
          </g>
          <g id="Group_16" data-name="Group 16" transform="translate(39.975 0.001)">
            <path id="Path_43" data-name="Path 43" d="M15318.57,11627.432h1.568a1.028,1.028,0,0,1,1.1,1.037,1.008,1.008,0,0,1-1.1,1.041h-1.568Zm0-3.162a.649.649,0,1,0-1.3,0v5.768a.649.649,0,0,0,.648.66h2.217a2.23,2.23,0,1,0,0-4.451h-1.568Z" transform="translate(-15317.273 -11623.611)" fill="#fff"/>
          </g>
          <g id="Group_17" data-name="Group 17" transform="translate(46.312 0.001)">
            <path id="Path_44" data-name="Path 44" d="M15676.62,11623.6a.645.645,0,0,0-.647.648v2.245h-3.633v-2.245a.649.649,0,0,0-1.3,0v5.9a.649.649,0,0,0,1.3,0v-2.455h3.633v2.455a.648.648,0,0,0,1.295,0v-5.9A.64.64,0,0,0,15676.62,11623.6Z" transform="translate(-15671.042 -11623.602)" fill="#fff"/>
          </g>
          <g id="Group_18" data-name="Group 18" transform="translate(53.937 0)">
            <path id="Path_45" data-name="Path 45" d="M16096.8,11627.164a3.592,3.592,0,1,0,3.59-3.6A3.587,3.587,0,0,0,16096.8,11627.164Zm1.295,0a2.3,2.3,0,1,1,2.295,2.384A2.334,2.334,0,0,1,16098.1,11627.164Z" transform="translate(-16096.803 -11623.561)" fill="#fff"/>
          </g>
          <g id="Group_19" data-name="Group 19" transform="translate(62.52 0.1)">
            <path id="Path_46" data-name="Path 46" d="M16577.318,11634.93v-1.807h2.744a.6.6,0,1,0,0-1.206h-2.744v-1.567h3.291a.6.6,0,0,0,.652-.6.623.623,0,0,0-.652-.61h-3.932a.637.637,0,0,0-.646.629v5.708a.646.646,0,0,0,.646.647h3.932a.615.615,0,0,0,.652-.607.607.607,0,0,0-.652-.589Z" transform="translate(-16576.031 -11629.142)" fill="#fff"/>
          </g>
          <g id="Group_20" data-name="Group 20" transform="translate(74.038 0.101)">
            <path id="Path_47" data-name="Path 47" d="M17219.74,11629.2a.645.645,0,0,0-.65.648v5.8a.649.649,0,0,0,1.3,0v-5.26h3.635v5.26a.647.647,0,0,0,1.295,0v-5.8a.64.64,0,0,0-.646-.648Z" transform="translate(-17219.09 -11629.201)" fill="#fff"/>
          </g>
          <g id="Group_21" data-name="Group 21" transform="translate(81.859 0.101)">
            <path id="Path_48" data-name="Path 48" d="M17655.8,11629.83v5.777a.654.654,0,1,0,1.309,0v-1.686h1.545a2.37,2.37,0,1,0,0-4.74h-2.2A.658.658,0,0,0,17655.8,11629.83Zm1.309.549h1.545a1.173,1.173,0,0,1,0,2.343h-1.545Z" transform="translate(-17655.801 -11629.182)" fill="#fff"/>
          </g>
          <g id="Group_22" data-name="Group 22" transform="translate(88.186 0)">
            <path id="Path_49" data-name="Path 49" d="M18013.574,11626.254l.471-.837-.053.938v3.761a.659.659,0,0,0,1.318,0v-5.786a.668.668,0,0,0-.66-.649h-.4a.78.78,0,0,0-.588.309l-2.863,4.122-.467.839.049-.939v-3.793a.66.66,0,0,0-1.318,0v5.8a.661.661,0,0,0,.66.647h.4a.748.748,0,0,0,.592-.307Z" transform="translate(-18009.063 -11623.58)" fill="#fff"/>
          </g>
          <g id="Group_23" data-name="Group 23" transform="translate(95.231 0.101)">
            <path id="Path_50" data-name="Path 50" d="M18403.93,11629.762c0,3.224-.172,4.529-1.117,5.258a.8.8,0,0,0-.42.627.609.609,0,0,0,.627.621c.318,0,.539-.18.91-.579,1-1.106,1.209-2.7,1.256-5.33h2.514v5.27a.648.648,0,0,0,.652.64.656.656,0,0,0,.633-.64v-5.807a.636.636,0,0,0-.633-.642h-3.785A.607.607,0,0,0,18403.93,11629.762Z" transform="translate(-18402.393 -11629.18)" fill="#fff"/>
          </g>
          <g id="Group_24" data-name="Group 24" transform="translate(103.227 0)">
            <path id="Path_51" data-name="Path 51" d="M18848.8,11627.164a3.593,3.593,0,1,0,3.59-3.6A3.589,3.589,0,0,0,18848.8,11627.164Zm1.295,0a2.3,2.3,0,1,1,2.295,2.384A2.335,2.335,0,0,1,18850.1,11627.164Z" transform="translate(-18848.803 -11623.561)" fill="#fff"/>
          </g>
          <g id="Group_25" data-name="Group 25" transform="translate(110.877 0)">
            <path id="Path_52" data-name="Path 52" d="M19279.5,11626.476h-.471l-1.039-1.866c-.328-.6-.705-1.039-1.152-1.039a.61.61,0,0,0-.629.618c0,.521.51.54.908,1.269l.846,1.507-1.855,2.723a.739.739,0,0,0-.16.45.622.622,0,0,0,.617.62.7.7,0,0,0,.6-.361l1.848-2.753h.486v2.476a.644.644,0,0,0,1.287,0v-2.476h.488l1.852,2.753a.7.7,0,0,0,.6.361.62.62,0,0,0,.613-.62.785.785,0,0,0-.156-.45l-1.861-2.723.852-1.507c.4-.729.91-.748.91-1.269a.614.614,0,0,0-.629-.618c-.451,0-.828.439-1.158,1.039l-1.039,1.866h-.469v-2.267a.644.644,0,0,0-1.287,0Z" transform="translate(-19275.949 -11623.57)" fill="#fff"/>
          </g>
          <g id="Group_26" data-name="Group 26" transform="translate(120.469 0.1)">
            <path id="Path_53" data-name="Path 53" d="M19812.816,11634.93v-1.807h2.746a.6.6,0,1,0,0-1.206h-2.746v-1.567h3.3a.6.6,0,0,0,.641-.6.619.619,0,0,0-.641-.61h-3.937a.64.64,0,0,0-.648.629v5.708a.648.648,0,0,0,.648.647h3.938a.611.611,0,0,0,.641-.607.6.6,0,0,0-.641-.589Z" transform="translate(-19811.531 -11629.142)" fill="#fff"/>
          </g>
          <g id="Group_27" data-name="Group 27" transform="translate(126.992 0.001)">
            <path id="Path_54" data-name="Path 54" d="M20181.316,11623.6a.647.647,0,0,0-.648.648v2.245h-3.633v-2.245a.648.648,0,0,0-1.3,0v5.9a.649.649,0,0,0,1.3,0v-2.455h3.633v2.455a.65.65,0,0,0,1.3,0v-5.9A.643.643,0,0,0,20181.316,11623.6Z" transform="translate(-20175.738 -11623.602)" fill="#fff"/>
          </g>
          <g id="Group_28" data-name="Group 28" transform="translate(134.818 0)">
            <path id="Path_55" data-name="Path 55" d="M20617.176,11626.254l.473-.837-.051.938v3.761a.658.658,0,0,0,1.316,0v-5.786a.671.671,0,0,0-.66-.649h-.4a.769.769,0,0,0-.59.309l-2.865,4.122-.467.839.049-.939v-3.793a.661.661,0,0,0-1.32,0v5.8a.665.665,0,0,0,.664.647h.4a.739.739,0,0,0,.588-.307Z" transform="translate(-20612.664 -11623.58)" fill="#fff"/>
          </g>
          <g id="Group_29" data-name="Group 29" transform="translate(142.66 0.1)">
            <path id="Path_56" data-name="Path 56" d="M21051.809,11634.93v-1.807h2.748a.6.6,0,1,0,0-1.206h-2.748v-1.567h3.295a.6.6,0,0,0,.646-.6.619.619,0,0,0-.646-.61h-3.932a.637.637,0,0,0-.648.629v5.708a.646.646,0,0,0,.648.647h3.932a.612.612,0,0,0,.646-.607.6.6,0,0,0-.646-.589Z" transform="translate(-21050.523 -11629.142)" fill="#fff"/>
          </g>
          <g id="Group_30" data-name="Group 30" transform="translate(0 12.474)">
            <path id="Path_57" data-name="Path 57" d="M13085.3,12328.684a.668.668,0,0,0,.651.648.644.644,0,0,0,.636-.648v-1.646h5.189v1.646a.645.645,0,0,0,.642.648.664.664,0,0,0,.636-.648v-2.185a.636.636,0,0,0-.636-.641h-.341v-5.168a.636.636,0,0,0-.64-.637h-3.771a.644.644,0,0,0-.648.637c0,2.964-.012,3.972-.839,5.168h-.228a.64.64,0,0,0-.651.641Zm5.5-7.454v4.629h-3.223c.6-1.067.617-2.452.669-4.629Z" transform="translate(-13085.301 -12320.054)" fill="#fff"/>
          </g>
          <g id="Group_31" data-name="Group 31" transform="translate(8.054 12.475)">
            <path id="Path_58" data-name="Path 58" d="M13536.537,12320.661c0,3.222-.168,4.531-1.119,5.26-.219.169-.42.339-.42.628a.611.611,0,0,0,.631.617c.32,0,.539-.178.908-.576,1.008-1.108,1.207-2.707,1.256-5.33h2.516v5.268a.644.644,0,0,0,.648.639.658.658,0,0,0,.641-.639v-5.808a.639.639,0,0,0-.641-.638h-3.779A.607.607,0,0,0,13536.537,12320.661Z" transform="translate(-13534.998 -12320.082)" fill="#fff"/>
          </g>
          <g id="Group_32" data-name="Group 32" transform="translate(16.047 12.474)">
            <path id="Path_59" data-name="Path 59" d="M13985.295,12323.413h-1.666a1.069,1.069,0,0,1-1.088-1.057,1.136,1.136,0,0,1,1.088-1.146h1.666Zm-3.893,2.637a.7.7,0,0,0-.119.391.66.66,0,0,0,.646.656.643.643,0,0,0,.522-.26l1.625-2.225h1.218v1.828a.64.64,0,0,0,.639.656.655.655,0,0,0,.647-.656v-5.779a.658.658,0,0,0-.659-.65h-2.293a2.377,2.377,0,0,0-2.376,2.377,2.248,2.248,0,0,0,1.357,2.056Z" transform="translate(-13981.253 -12320.011)" fill="#fff"/>
          </g>
          <g id="Group_33" data-name="Group 33" transform="translate(27.963 12.475)">
            <path id="Path_60" data-name="Path 60" d="M14647.859,12323.8h1.817a1.03,1.03,0,0,1,1.115,1.048.994.994,0,0,1-1.115,1.019h-1.817Zm0-2.525h3.023a.621.621,0,0,0,.637-.6.614.614,0,0,0-.637-.6h-3.664a.636.636,0,0,0-.638.638v5.711a.627.627,0,0,0,.629.637h2.467a2.224,2.224,0,1,0,0-4.439h-1.817Z" transform="translate(-14646.581 -12320.082)" fill="#fff"/>
          </g>
          <g id="Group_34" data-name="Group 34" transform="translate(33.759 12.475)">
            <path id="Path_61" data-name="Path 61" d="M14971.729,12320.661c0,3.222-.172,4.531-1.119,5.26-.219.169-.42.339-.42.628a.611.611,0,0,0,.627.617c.322,0,.539-.178.912-.576,1.006-1.108,1.209-2.707,1.256-5.33h2.516v5.268a.645.645,0,0,0,.65.639.654.654,0,0,0,.635-.639v-5.808a.636.636,0,0,0-.635-.638h-3.783A.607.607,0,0,0,14971.729,12320.661Z" transform="translate(-14970.189 -12320.082)" fill="#fff"/>
          </g>
          <g id="Group_35" data-name="Group 35" transform="translate(41.505 12.475)">
            <path id="Path_62" data-name="Path 62" d="M15409.048,12326.161l-1.885-5.59a.694.694,0,0,0-.641-.489h-1.285a.683.683,0,0,0-.631.5l-1.874,5.569a1.171,1.171,0,0,0-.079.359.661.661,0,0,0,.649.656.709.709,0,0,0,.646-.507l.489-1.388h2.906l.5,1.407a.679.679,0,0,0,.641.487.64.64,0,0,0,.646-.646A1.428,1.428,0,0,0,15409.048,12326.161Zm-4.221-2.086.948-2.785h.22l.948,2.785Z" transform="translate(-15402.653 -12320.082)" fill="#fff"/>
          </g>
          <g id="Group_36" data-name="Group 36" transform="translate(49.126 12.474)">
            <path id="Path_63" data-name="Path 63" d="M15828.2,12326.469a.647.647,0,0,0,1.295,0v-5.238h2.764a.621.621,0,0,0,.65-.6.608.608,0,0,0-.65-.6h-3.412a.647.647,0,0,0-.646.649Z" transform="translate(-15828.203 -12320.031)" fill="#fff"/>
          </g>
          <g id="Group_37" data-name="Group 37" transform="translate(53.808 12.374)">
            <path id="Path_64" data-name="Path 64" d="M16089.6,12318.063a3.594,3.594,0,1,0,3.595-3.6A3.59,3.59,0,0,0,16089.6,12318.063Zm1.3,0a2.3,2.3,0,1,1,2.3,2.385A2.335,2.335,0,0,1,16090.9,12318.063Z" transform="translate(-16089.6 -12314.462)" fill="#fff"/>
          </g>
          <g id="Group_38" data-name="Group 38" transform="translate(61.014 12.475)">
            <path id="Path_65" data-name="Path 65" d="M16496.975,12320.1h-4.381a.608.608,0,0,0-.66.6.617.617,0,0,0,.66.6h1.518v5.228a.669.669,0,0,0,1.338,0v-5.228h1.525a.609.609,0,0,0,.65-.6A.6.6,0,0,0,16496.975,12320.1Z" transform="translate(-16491.934 -12320.103)" fill="#fff"/>
          </g>
          <g id="Group_39" data-name="Group 39" transform="translate(67.601 12.475)">
            <path id="Path_66" data-name="Path 66" d="M16860.332,12320.1a.637.637,0,0,0-.631.637v5.72a.64.64,0,0,0,.631.627h2.395a2.253,2.253,0,0,0,2.457-2.187,1.84,1.84,0,0,0-.75-1.556,1.744,1.744,0,0,0,.508-1.306,1.938,1.938,0,0,0-2.152-1.936Zm2.434,1.2a.806.806,0,0,1,.908.785c0,.512-.357.8-.908.8h-1.8v-1.586Zm.012,2.781c.707,0,1.137.291,1.137.879,0,.569-.43.929-1.137.929h-1.811v-1.808Z" transform="translate(-16859.701 -12320.103)" fill="#fff"/>
          </g>
          <g id="Group_40" data-name="Group 40" transform="translate(74.274 12.374)">
            <path id="Path_67" data-name="Path 67" d="M17232.3,12318.063a3.593,3.593,0,1,0,3.592-3.6A3.59,3.59,0,0,0,17232.3,12318.063Zm1.3,0a2.3,2.3,0,1,1,2.291,2.385A2.332,2.332,0,0,1,17233.6,12318.063Z" transform="translate(-17232.301 -12314.462)" fill="#fff"/>
          </g>
          <g id="Group_41" data-name="Group 41" transform="translate(82.857 12.475)">
            <path id="Path_68" data-name="Path 68" d="M17711.5,12320.729v5.778a.654.654,0,1,0,1.309,0v-1.687h1.545a2.37,2.37,0,1,0,0-4.74h-2.2A.661.661,0,0,0,17711.5,12320.729Zm1.309.549h1.545a1.174,1.174,0,0,1,0,2.345h-1.545Z" transform="translate(-17711.502 -12320.08)" fill="#fff"/>
          </g>
          <g id="Group_42" data-name="Group 42" transform="translate(89.184 12.375)">
            <path id="Path_69" data-name="Path 69" d="M18069.271,12317.154l.473-.838-.051.938v3.762a.657.657,0,0,0,1.314,0v-5.787a.667.667,0,0,0-.658-.648h-.4a.772.772,0,0,0-.59.309l-2.865,4.123-.467.836.053-.937v-3.791a.662.662,0,0,0-1.322,0v5.8a.665.665,0,0,0,.662.646h.395a.737.737,0,0,0,.59-.309Z" transform="translate(-18064.762 -12314.482)" fill="#fff"/>
          </g>
          <g id="Group_43" data-name="Group 43" transform="translate(96.328 12.475)">
            <path id="Path_70" data-name="Path 70" d="M18468.672,12320.1h-4.381a.608.608,0,0,0-.658.6.615.615,0,0,0,.658.6h1.52v5.228a.668.668,0,0,0,1.336,0v-5.228h1.525a.608.608,0,0,0,.648-.6A.6.6,0,0,0,18468.672,12320.1Z" transform="translate(-18463.633 -12320.103)" fill="#fff"/>
          </g>
          <g id="Group_44" data-name="Group 44" transform="translate(102.915 12.474)">
            <path id="Path_71" data-name="Path 71" d="M18832.709,12325.83v-1.807h2.744a.605.605,0,1,0,0-1.207h-2.744v-1.567H18836a.6.6,0,0,0,.646-.6.616.616,0,0,0-.646-.607h-3.932a.636.636,0,0,0-.65.627v5.708a.647.647,0,0,0,.65.649H18836a.612.612,0,0,0,.646-.61.6.6,0,0,0-.646-.587Z" transform="translate(-18831.422 -12320.043)" fill="#fff"/>
          </g>
          <g id="Group_45" data-name="Group 45" transform="translate(108.644 12.475)">
            <path id="Path_72" data-name="Path 72" d="M19152.826,12320.661c0,3.222-.166,4.531-1.117,5.26-.219.169-.42.339-.42.628a.612.612,0,0,0,.631.617c.32,0,.541-.178.906-.576,1.008-1.108,1.207-2.707,1.256-5.33h2.516v5.268a.644.644,0,0,0,.65.639.656.656,0,0,0,.641-.639v-5.808a.638.638,0,0,0-.641-.638h-3.783A.606.606,0,0,0,19152.826,12320.661Z" transform="translate(-19151.289 -12320.082)" fill="#fff"/>
          </g>
          <g id="Group_46" data-name="Group 46" transform="translate(116.836 12.375)">
            <path id="Path_73" data-name="Path 73" d="M19609.969,12318.334h1.566a1.028,1.028,0,0,1,1.1,1.037,1.007,1.007,0,0,1-1.1,1.039h-1.566Zm0-3.164a.649.649,0,1,0-1.3,0v5.768a.651.651,0,0,0,.65.662h2.213a2.231,2.231,0,1,0,0-4.453h-1.566Z" transform="translate(-19608.672 -12314.512)" fill="#fff"/>
          </g>
          <g id="Group_47" data-name="Group 47" transform="translate(123.172 12.375)">
            <path id="Path_74" data-name="Path 74" d="M19968.016,12314.5a.643.643,0,0,0-.646.647v2.245h-3.635v-2.245a.647.647,0,1,0-1.295,0v5.9a.648.648,0,0,0,1.295,0v-2.453h3.635v2.453a.648.648,0,0,0,1.295,0v-5.9A.639.639,0,0,0,19968.016,12314.5Z" transform="translate(-19962.439 -12314.503)" fill="#fff"/>
          </g>
          <g id="Group_48" data-name="Group 48" transform="translate(130.798 12.374)">
            <path id="Path_75" data-name="Path 75" d="M20388.2,12318.063a3.594,3.594,0,1,0,3.594-3.6A3.592,3.592,0,0,0,20388.2,12318.063Zm1.3,0a2.3,2.3,0,1,1,2.295,2.385A2.334,2.334,0,0,1,20389.5,12318.063Z" transform="translate(-20388.199 -12314.462)" fill="#fff"/>
          </g>
          <g id="Group_49" data-name="Group 49" transform="translate(139.18 12.375)">
            <path id="Path_76" data-name="Path 76" d="M20856.2,12318.115a3.583,3.583,0,0,0,3.592,3.592c.779,0,2.318-.4,2.318-1.167a.6.6,0,0,0-.609-.6.56.56,0,0,0-.318.1,2.4,2.4,0,1,1-.172-3.96.566.566,0,0,0,.32.092.585.585,0,0,0,.6-.591c0-.728-1.4-1.058-2.141-1.058A3.584,3.584,0,0,0,20856.2,12318.115Z" transform="translate(-20856.199 -12314.521)" fill="#fff"/>
          </g>
          <g id="Group_50" data-name="Group 50" transform="translate(145.388 12.475)">
            <path id="Path_77" data-name="Path 77" d="M21207.873,12320.1h-4.381a.61.61,0,0,0-.66.6.617.617,0,0,0,.66.6h1.516v5.228a.672.672,0,0,0,.668.659.665.665,0,0,0,.668-.659v-5.228h1.529a.6.6,0,0,0,.645-.6A.6.6,0,0,0,21207.873,12320.1Z" transform="translate(-21202.832 -12320.103)" fill="#fff"/>
          </g>
          <g id="Group_51" data-name="Group 51" transform="translate(151.974 12.375)">
            <path id="Path_78" data-name="Path 78" d="M21575.076,12317.154l.467-.838-.049.938v3.762a.66.66,0,0,0,1.32,0v-5.787a.673.673,0,0,0-.662-.648h-.4a.771.771,0,0,0-.588.309l-2.861,4.123-.469.836.047-.937v-3.791a.658.658,0,0,0-1.314,0v5.8a.662.662,0,0,0,.654.646h.4a.739.739,0,0,0,.588-.309Z" transform="translate(-21570.566 -12314.482)" fill="#fff"/>
          </g>
        </g>
      </g>
    </g>
  </g>
</svg>
