<svg xmlns="http://www.w3.org/2000/svg" width="18.416" height="22.715" viewBox="0 0 18.416 22.715">
  <g id="apple" transform="translate(-48.456)">
    <path id="Path_2485" data-name="Path 2485" d="M66.8,138.1a.473.473,0,0,0-.334-.212,3.291,3.291,0,0,1-.554-6.4.473.473,0,0,0,.255-.705A5.523,5.523,0,0,0,62.18,128a7.794,7.794,0,0,0-2.479.531,5.985,5.985,0,0,1-1.78.415,5.985,5.985,0,0,1-1.78-.415A7.794,7.794,0,0,0,53.662,128c-1.767,0-5.206,2.505-5.206,7.1,0,4.365,3.184,9.938,5.679,9.938a6.039,6.039,0,0,0,2.745-.632,1.882,1.882,0,0,1,2.082,0,6.039,6.039,0,0,0,2.745.632c1.978,0,4.211-3.4,5.146-6.543A.474.474,0,0,0,66.8,138.1Z" transform="translate(0 -122.32)" fill="#fff"/>
    <path id="Path_2486" data-name="Path 2486" d="M240.928,5.679A5.211,5.211,0,0,0,246.134.473.473.473,0,0,0,245.661,0a5.211,5.211,0,0,0-5.206,5.206A.473.473,0,0,0,240.928,5.679Z" transform="translate(-183.481)" fill="#fff"/>
  </g>
</svg>
