<svg xmlns="http://www.w3.org/2000/svg" width="30.047" height="30.184" viewBox="0 0 30.047 30.184">
  <g id="Group_796" data-name="Group 796" transform="translate(-325 -52.376)">
    <path id="Krug" d="M649,542.7a13.886,13.886,0,0,1,9.86,4.108,14.052,14.052,0,0,1,0,19.775,13.887,13.887,0,0,1-19.721,0,14.052,14.052,0,0,1,0-19.775A13.887,13.887,0,0,1,649,542.7m0-1.1a14.889,14.889,0,0,0-10.627,4.437A15.092,15.092,0,0,0,649,571.784a14.889,14.889,0,0,0,10.627-4.437,15.11,15.11,0,0,0,0-21.309A14.889,14.889,0,0,0,649,541.6Z" transform="translate(-308.975 -489.223)" fill="#fff"/>
    <path id="Krs" d="M656.728,564.795l-4.328,4.328.767.767,4.328-4.328,3.944,3.944.767-.767-3.889-3.944,4.327-4.328-.822-.767-4.328,4.328-4.328-4.328-.767.767Z" transform="translate(-317.307 -497.408)" fill="#fff" fill-rule="evenodd"/>
  </g>
</svg>
