<svg id="google" xmlns="http://www.w3.org/2000/svg" width="20.579" height="20.579" viewBox="0 0 20.579 20.579">
  <path id="Path_30" data-name="Path 30" d="M4.561,145.147l-.716,2.674-2.618.055a10.308,10.308,0,0,1-.076-9.608h0l2.331.427L4.5,141.012a6.141,6.141,0,0,0,.058,4.135Z" transform="translate(0 -132.71)" fill="#fbbb00"/>
  <path id="Path_31" data-name="Path 31" d="M271.512,208.176a10.286,10.286,0,0,1-3.668,9.947h0l-2.936-.15-.416-2.594a6.133,6.133,0,0,0,2.639-3.132h-5.5v-4.071h9.884Z" transform="translate(-251.112 -199.809)" fill="#518ef8"/>
  <path id="Path_32" data-name="Path 32" d="M46.014,315.286h0a10.293,10.293,0,0,1-15.505-3.148l3.335-2.73a6.12,6.12,0,0,0,8.819,3.133Z" transform="translate(-29.283 -296.973)" fill="#28b446"/>
  <path id="Path_33" data-name="Path 33" d="M44.331,2.369,41,5.1a6.119,6.119,0,0,0-9.021,3.2L28.625,5.558h0A10.292,10.292,0,0,1,44.331,2.369Z" transform="translate(-27.473)" fill="#f14336"/>
</svg>
