<svg xmlns="http://www.w3.org/2000/svg" width="29.996" height="30" viewBox="0 0 29.996 30">
    <g id="home_heart" transform="translate(-56.001 -344)">
        <path id="heart" data-name="heart" d="M-3536.448,30h-17.106a3.236,3.236,0,0,1-3.233-3.232V17.762h-.488c-.025,0-.054,0-.084,0a2.748,2.748,0,0,1-1.833-.806,2.767,2.767,0,0,1-.005-3.9l.006-.006.006-.006L-3546.954.809A2.741,2.741,0,0,1-3545,0a2.739,2.739,0,0,1,1.952.809l12.238,12.237a2.768,2.768,0,0,1,0,3.907,2.744,2.744,0,0,1-1.953.809h-.453v9.005A3.236,3.236,0,0,1-3536.448,30Zm-12.3-17.917A4.168,4.168,0,0,0-3553,16.254c0,2.864,2.624,5.2,6.6,8.732l.015.013,1.122,1,1.121-.994.034-.03c3.96-3.531,6.577-5.863,6.577-8.722a4.168,4.168,0,0,0-4.253-4.171,4.664,4.664,0,0,0-3.479,1.586A4.665,4.665,0,0,0-3548.748,12.083Z" transform="translate(3616 344)"/>
    </g>
</svg>
