<svg enable-background="new 0 0 32 32" height="512" viewBox="0 0 32 32" width="512" xmlns="http://www.w3.org/2000/svg"><g id="BG"><path d="m26 32h-20c-3.314 0-6-2.686-6-6v-20c0-3.314 2.686-6 6-6h20c3.314 0 6 2.686 6 6v20c0 3.314-2.686 6-6 6z" fill="#ffe6e2"/></g><g id="bold"><path d="m16 24c-4.411 0-8-3.589-8-8s3.589-8 8-8 8 3.589 8 8-3.589 8-8 8zm0-14.667c-3.676 0-6.667 2.991-6.667 6.667s2.991 6.667 6.667 6.667 6.667-2.991 6.667-6.667-2.991-6.667-6.667-6.667z" fill="#fc573b"/><path d="m10.816 21.851c-.171 0-.341-.065-.471-.195-.26-.26-.26-.682 0-.943l10.369-10.369c.26-.26.682-.26.943 0 .26.26.26.683 0 .943l-10.37 10.369c-.13.13-.301.195-.471.195z" fill="#fc573b"/><g fill="#fd907e"><path d="m16.782 17.103-2.166 2.166c.274.486.789.819 1.384.819.88 0 1.596-.718 1.596-1.6 0-.595-.331-1.109-.814-1.385z"/><path d="m13.189 16.906c.07-.07.144-.134.218-.199l2.293-2.293c-1.304.073-2.523.613-3.456 1.55-.26.261-.258.683.003.943.26.261.683.26.942-.001z"/><path d="m18.724 15.162-.981.981c.389.192.751.446 1.067.764.13.131.301.196.473.196.17 0 .34-.065.47-.194.261-.26.262-.682.003-.943-.314-.316-.662-.581-1.032-.804z"/><path d="m20.517 13.369-.953.953c.356.238.691.512 1 .823.13.131.301.196.473.196.17 0 .34-.065.47-.194.261-.26.262-.682.003-.943-.31-.31-.645-.584-.993-.835z"/><path d="m11.436 15.145c1.22-1.226 2.841-1.901 4.564-1.901.275 0 .545.023.813.057l1.135-1.135c-.63-.163-1.281-.255-1.948-.255-2.08 0-4.036.814-5.509 2.293-.26.261-.258.683.003.943.26.261.683.259.942-.002z"/></g></g></svg>