<svg xmlns="http://www.w3.org/2000/svg" width="30.001" height="30.001" viewBox="0 0 30.001 30.001">
    <path id="circle" data-name="circle" d="M-1482.556-730h0l-8.575-8.559v-1.355l-.464-.48a11.133,11.133,0,0,1-7.255,2.693,11.078,11.078,0,0,1-7.885-3.265A11.076,11.076,0,0,1-1510-748.85a11.076,11.076,0,0,1,3.266-7.884A11.078,11.078,0,0,1-1498.85-760a11.077,11.077,0,0,1,7.884,3.265,11.077,11.077,0,0,1,3.265,7.884,11.142,11.142,0,0,1-2.693,7.256l.48.463h1.355l8.559,8.577-2.555,2.555Zm-16.294-26.571a7.728,7.728,0,0,0-7.719,7.719,7.728,7.728,0,0,0,7.719,7.718,7.727,7.727,0,0,0,7.718-7.718A7.728,7.728,0,0,0-1498.85-756.57Z" transform="translate(1510 760)" fill="#a5a5a5"/>
</svg>
